<?xml version="1.0" encoding="UTF-8" ?>
<!DOCTYPE svg PUBLIC "-//W3C//DTD SVG 1.1//EN" "http://www.w3.org/Graphics/SVG/1.1/DTD/svg11.dtd">
<svg width="112pt" height="112pt" viewBox="0 0 112 112" version="1.1" xmlns="http://www.w3.org/2000/svg">
<g id="#ffffffff">
<path fill="#ffffff" opacity="1.00" d=" M 0.00 0.00 L 112.00 0.00 L 112.00 112.00 L 0.00 112.00 L 0.00 0.00 M 52.15 15.08 C 52.18 17.61 52.20 20.14 52.20 22.67 C 37.08 24.27 24.17 37.07 22.64 52.23 C 20.10 52.25 17.56 52.27 15.03 52.29 C 15.04 54.78 15.04 57.28 15.02 59.78 C 17.55 59.79 20.08 59.81 22.61 59.83 C 24.18 75.01 37.06 87.80 52.21 89.42 C 52.20 91.92 52.18 94.42 52.15 96.92 C 54.69 96.95 57.23 96.95 59.78 96.92 C 59.75 94.42 59.73 91.92 59.72 89.42 C 74.86 87.79 87.74 75.00 89.30 59.83 C 91.86 59.81 94.42 59.79 96.98 59.78 C 96.96 57.28 96.96 54.78 96.97 52.29 C 94.40 52.27 91.83 52.25 89.26 52.23 C 87.78 37.05 74.82 24.29 59.72 22.67 C 59.73 20.14 59.75 17.61 59.78 15.08 C 57.24 15.05 54.69 15.05 52.15 15.08 Z" />
<path fill="#ffffff" opacity="1.00" d=" M 52.26 30.32 C 59.76 29.26 67.68 31.54 73.28 36.69 C 80.59 43.05 83.65 53.67 81.00 62.97 C 77.99 74.66 65.99 83.14 53.95 81.94 C 41.15 81.26 30.17 69.80 29.97 57.00 C 29.21 44.12 39.46 31.86 52.26 30.32 M 52.33 41.52 C 45.48 43.09 40.37 50.02 41.07 57.05 C 41.32 64.65 48.36 71.24 55.98 70.92 C 64.36 71.26 71.75 63.27 70.84 54.95 C 70.55 45.98 60.95 39.11 52.33 41.52 Z" />
</g>
<g id="#757575ff">
<path fill="#757575" opacity="1.00" d=" M 52.15 15.08 C 54.69 15.05 57.24 15.05 59.78 15.08 C 59.75 17.61 59.73 20.14 59.72 22.67 C 74.82 24.29 87.78 37.05 89.26 52.23 C 91.83 52.25 94.40 52.27 96.97 52.29 C 96.96 54.78 96.96 57.28 96.98 59.78 C 94.42 59.79 91.86 59.81 89.30 59.83 C 87.74 75.00 74.86 87.79 59.72 89.42 C 59.73 91.92 59.75 94.42 59.78 96.92 C 57.23 96.95 54.69 96.95 52.15 96.92 C 52.18 94.42 52.20 91.92 52.21 89.42 C 37.06 87.80 24.18 75.01 22.61 59.83 C 20.08 59.81 17.55 59.79 15.02 59.78 C 15.04 57.28 15.04 54.78 15.03 52.29 C 17.56 52.27 20.10 52.25 22.64 52.23 C 24.17 37.07 37.08 24.27 52.20 22.67 C 52.20 20.14 52.18 17.61 52.15 15.08 M 52.26 30.32 C 39.46 31.86 29.21 44.12 29.97 57.00 C 30.17 69.80 41.15 81.26 53.95 81.94 C 65.99 83.14 77.99 74.66 81.00 62.97 C 83.65 53.67 80.59 43.05 73.28 36.69 C 67.68 31.54 59.76 29.26 52.26 30.32 Z" />
<path fill="#757575" opacity="1.00" d=" M 52.33 41.52 C 60.95 39.11 70.55 45.98 70.84 54.95 C 71.75 63.27 64.36 71.26 55.98 70.92 C 48.36 71.24 41.32 64.65 41.07 57.05 C 40.37 50.02 45.48 43.09 52.33 41.52 Z" />
</g>
</svg>
