<?xml version="1.0" encoding="UTF-8" ?>
<!DOCTYPE svg PUBLIC "-//W3C//DTD SVG 1.1//EN" "http://www.w3.org/Graphics/SVG/1.1/DTD/svg11.dtd">
<svg width="20pt" height="20pt" viewBox="0 0 250 250" version="1.1" xmlns="http://www.w3.org/2000/svg">
<g id="#ffae00ff">
<path fill="#ffae00" opacity="1.00" d=" M 118.87 0.00 L 129.78 0.00 C 158.25 1.39 186.23 12.49 207.41 31.65 C 229.41 51.20 244.16 78.77 247.89 107.99 C 251.18 132.68 247.00 158.38 235.65 180.59 C 222.00 207.80 197.99 229.64 169.57 240.57 C 142.33 251.22 111.32 251.77 83.71 242.14 C 57.20 233.04 34.08 214.58 19.17 190.87 C 7.33 172.29 0.83 150.51 0.00 128.52 L 0.00 120.54 C 1.01 87.56 15.70 55.29 40.08 33.03 C 61.35 13.12 89.84 1.52 118.87 0.00 M 110.61 10.78 C 93.87 12.45 77.88 18.74 63.59 27.44 C 38.44 43.32 19.81 69.11 12.87 98.05 C 9.25 114.43 9.12 131.55 12.24 148.03 C 19.71 183.93 45.47 215.38 79.21 229.76 C 101.33 239.67 126.64 241.22 150.22 236.29 C 168.90 231.80 186.61 222.79 200.83 209.80 C 217.99 194.64 230.20 174.16 235.88 152.02 C 238.58 140.55 239.41 128.68 238.74 116.93 C 237.50 90.83 226.11 65.57 208.34 46.54 C 193.12 29.99 172.86 18.29 151.07 12.91 C 137.83 9.92 124.09 9.32 110.61 10.78 Z" />
</g>
<g id="#524a4aff">
<path fill="#524a4a" opacity="1.00" d=" M 110.61 10.78 C 124.09 9.32 137.83 9.92 151.07 12.91 C 172.86 18.29 193.12 29.99 208.34 46.54 C 226.11 65.57 237.50 90.83 238.74 116.93 C 239.41 128.68 238.58 140.55 235.88 152.02 C 230.20 174.16 217.99 194.64 200.83 209.80 C 186.61 222.79 168.90 231.80 150.22 236.29 C 126.64 241.22 101.33 239.67 79.21 229.76 C 45.47 215.38 19.71 183.93 12.24 148.03 C 9.12 131.55 9.25 114.43 12.87 98.05 C 19.81 69.11 38.44 43.32 63.59 27.44 C 77.88 18.74 93.87 12.45 110.61 10.78 M 99.33 39.20 C 99.32 44.96 99.35 50.71 99.33 56.47 C 91.57 56.55 83.81 56.28 76.07 56.60 C 71.30 56.85 67.18 60.43 65.68 64.87 C 59.89 81.45 54.28 98.10 48.56 114.70 C 47.81 117.06 48.08 119.57 48.04 122.00 C 48.09 143.01 48.03 164.02 48.07 185.03 C 47.89 190.12 53.05 194.29 57.99 193.65 C 62.39 193.40 67.78 194.78 71.12 191.07 C 75.36 187.29 73.24 181.19 73.89 176.27 C 107.96 176.32 142.03 176.34 176.10 176.27 C 176.44 180.04 175.81 183.90 176.61 187.63 C 177.95 190.94 181.23 193.80 184.97 193.60 C 188.50 193.66 192.08 193.86 195.59 193.35 C 199.08 192.26 202.14 188.86 201.94 185.05 C 201.96 164.03 201.92 143.00 201.96 121.98 C 201.90 119.36 202.26 116.62 201.29 114.11 C 195.57 97.69 190.09 81.18 184.31 64.78 C 182.80 60.36 178.66 56.85 173.92 56.59 C 166.18 56.29 158.42 56.55 150.67 56.47 C 150.65 50.71 150.68 44.96 150.66 39.20 C 133.55 39.21 116.44 39.21 99.33 39.20 Z" />
<path fill="#524a4a" opacity="1.00" d=" M 78.25 69.47 C 109.43 69.48 140.60 69.49 171.78 69.47 C 176.16 82.14 180.11 94.96 184.66 107.56 C 181.44 107.95 178.21 107.75 174.99 107.77 C 139.64 107.80 104.29 107.75 68.95 107.80 C 67.76 107.76 66.58 107.69 65.39 107.59 C 69.92 94.97 73.92 82.16 78.25 69.47 Z" />
<path fill="#524a4a" opacity="1.00" d=" M 73.42 125.70 C 81.43 122.31 91.41 129.28 90.80 137.98 C 91.37 146.77 80.86 153.07 73.10 149.57 C 68.46 147.79 65.24 142.97 65.41 138.00 C 65.18 132.76 68.60 127.66 73.42 125.70 Z" />
<path fill="#524a4a" opacity="1.00" d=" M 167.51 125.71 C 175.56 122.23 185.24 129.37 184.60 138.02 C 185.09 146.37 175.82 152.73 168.10 149.90 C 161.36 148.04 157.50 140.33 159.74 133.76 C 161.05 130.17 163.95 127.12 167.51 125.71 Z" />
</g>
<g id="#1de9b6ff">
<path fill="#1de9b6" opacity="1.00" d=" M 99.33 39.20 C 116.44 39.21 133.55 39.21 150.66 39.20 C 150.68 44.96 150.65 50.71 150.67 56.47 C 158.42 56.55 166.18 56.29 173.92 56.59 C 178.66 56.85 182.80 60.36 184.31 64.78 C 190.09 81.18 195.57 97.69 201.29 114.11 C 202.26 116.62 201.90 119.36 201.96 121.98 C 201.92 143.00 201.96 164.03 201.94 185.05 C 202.14 188.86 199.08 192.26 195.59 193.35 C 192.08 193.86 188.50 193.66 184.97 193.60 C 181.23 193.80 177.95 190.94 176.61 187.63 C 175.81 183.90 176.44 180.04 176.10 176.27 C 142.03 176.34 107.96 176.32 73.89 176.27 C 73.24 181.19 75.36 187.29 71.12 191.07 C 67.78 194.78 62.39 193.40 57.99 193.65 C 53.05 194.29 47.89 190.12 48.07 185.03 C 48.03 164.02 48.09 143.01 48.04 122.00 C 48.08 119.57 47.81 117.06 48.56 114.70 C 54.28 98.10 59.89 81.45 65.68 64.87 C 67.18 60.43 71.30 56.85 76.07 56.60 C 83.81 56.28 91.57 56.55 99.33 56.47 C 99.35 50.71 99.32 44.96 99.33 39.20 M 78.25 69.47 C 73.92 82.16 69.92 94.97 65.39 107.59 C 66.58 107.69 67.76 107.76 68.95 107.80 C 104.29 107.75 139.64 107.80 174.99 107.77 C 178.21 107.75 181.44 107.95 184.66 107.56 C 180.11 94.96 176.16 82.14 171.78 69.47 C 140.60 69.49 109.43 69.48 78.25 69.47 M 73.42 125.70 C 68.60 127.66 65.18 132.76 65.41 138.00 C 65.24 142.97 68.46 147.79 73.10 149.57 C 80.86 153.07 91.37 146.77 90.80 137.98 C 91.41 129.28 81.43 122.31 73.42 125.70 M 167.51 125.71 C 163.95 127.12 161.05 130.17 159.74 133.76 C 157.50 140.33 161.36 148.04 168.10 149.90 C 175.82 152.73 185.09 146.37 184.60 138.02 C 185.24 129.37 175.56 122.23 167.51 125.71 Z" />
</g>
</svg>
