<?xml version="1.0" encoding="UTF-8" ?>
<!DOCTYPE svg PUBLIC "-//W3C//DTD SVG 1.1//EN" "http://www.w3.org/Graphics/SVG/1.1/DTD/svg11.dtd">
<svg width="20pt" height="20pt" viewBox="0 0 500 500" version="1.1" xmlns="http://www.w3.org/2000/svg">
<g id="#ea9074ff">
<path fill="#ea9074" opacity="1.00" d=" M 185.86 13.59 C 211.54 3.60 239.64 -0.47 267.07 2.46 C 289.89 4.78 312.25 11.61 332.43 22.54 C 358.66 36.71 381.09 57.78 397.04 82.94 C 413.14 108.35 422.48 138.00 423.79 168.04 C 425.01 188.96 421.35 209.83 415.90 229.95 C 408.68 256.01 397.91 280.95 385.82 305.08 C 367.65 340.66 346.25 374.51 323.20 407.10 C 300.36 439.25 276.01 470.33 250.03 500.00 L 249.18 500.00 C 240.78 490.97 233.03 481.32 225.13 471.84 C 190.83 429.69 158.86 385.50 131.44 338.54 C 115.40 310.84 100.83 282.15 90.12 251.94 C 84.91 237.66 80.81 222.94 78.06 207.98 C 68.18 157.76 82.45 103.61 115.40 64.50 C 134.15 42.01 158.54 24.21 185.86 13.59 M 238.82 52.73 C 237.43 53.69 235.61 53.49 234.11 54.19 C 216.38 60.03 202.40 76.38 200.37 95.05 C 200.13 101.73 199.71 108.60 201.78 115.06 C 206.02 130.34 218.07 143.09 233.03 148.33 C 240.32 151.20 248.26 151.00 255.95 150.64 C 279.97 148.11 300.18 125.35 298.81 101.02 C 299.75 76.58 278.91 54.16 254.77 52.11 C 249.46 50.83 244.12 52.30 238.82 52.73 M 217.27 200.30 C 210.15 201.89 203.08 203.76 196.23 206.28 C 192.82 207.46 189.41 208.65 186.13 210.15 C 174.53 215.22 163.02 221.81 155.34 232.14 C 152.28 236.74 149.43 242.28 150.48 247.94 C 166.19 270.99 189.97 288.50 216.85 296.16 C 219.30 296.70 221.68 297.59 224.19 297.85 C 226.74 298.58 229.49 299.40 232.14 299.01 L 231.91 299.50 C 246.15 301.17 260.83 301.31 274.81 297.83 C 277.32 297.57 279.70 296.70 282.15 296.15 C 309.03 288.52 332.76 271.00 348.49 247.99 C 349.33 244.90 348.30 241.67 347.31 238.73 C 345.70 235.20 343.68 231.84 341.07 228.96 C 330.73 217.52 316.21 211.10 301.99 205.91 C 299.99 205.34 298.04 204.61 296.04 204.04 C 289.40 202.17 282.73 200.10 275.86 199.29 C 274.12 198.04 271.76 198.72 269.80 198.11 C 252.40 194.84 234.41 196.41 217.27 200.30 Z" />
</g>
</svg>
